HIERARCHY
ROOT hip
{
  OFFSET 0 0 0
  CHANNELS 6 Xposition Yposition Zposition Zrotation Yrotation Xrotation
  JOINT abdomen
  {
    OFFSET 0 20.6881 -0.73152
    CHANNELS 3 Zrotation Xrotation Yrotation
    JOINT chest
    {
      OFFSET 0 11.7043 -0.48768
      CHANNELS 3 Zrotation Xrotation Yrotation
      JOINT neck
      {
        OFFSET 0 22.1894 -2.19456
        CHANNELS 3 Zrotation Xrotation Yrotation
        JOINT head
        {
          OFFSET -0.24384 7.07133 1.2192
          CHANNELS 3 Zrotation Xrotation Yrotation
          JOINT leftEye
          {
            OFFSET 4.14528 8.04674 8.04672
            CHANNELS 3 Zrotation Xrotation Yrotation
            End Site
            {
              OFFSET 1 0 0
            }
          }
          JOINT rightEye
          {
            OFFSET -3.6576 8.04674 8.04672
            CHANNELS 3 Zrotation Xrotation Yrotation
            End Site
            {
              OFFSET 1 0 0
            }
          }
        }
      }
      JOINT rCollar
      {
        OFFSET -2.68224 19.2634 -4.8768
        CHANNELS 3 Zrotation Xrotation Yrotation
        JOINT rShldr
        {
          OFFSET -8.77824 -1.95073 1.46304
          CHANNELS 3 Zrotation Xrotation Yrotation
          JOINT rForeArm
          {
            OFFSET -28.1742 -1.7115 0.48768
            CHANNELS 3 Zrotation Xrotation Yrotation
            JOINT rHand
            {
              OFFSET -22.5879 0.773209 7.07136
              CHANNELS 3 Zrotation Xrotation Yrotation
              JOINT rThumb1
              {
                OFFSET -1.2192 -0.487915 3.41376
                CHANNELS 3 Zrotation Xrotation Yrotation
                JOINT rThumb2
                {
                  OFFSET -3.37035 -0.52449 3.41376
                  CHANNELS 3 Zrotation Xrotation Yrotation
                  End Site
                  {
                    OFFSET -1.78271 -1.18214 1.43049
                  }
                }
              }
              JOINT rIndex1
              {
                OFFSET -7.75947 0.938293 5.60832
                CHANNELS 3 Zrotation Xrotation Yrotation
                JOINT rIndex2
                {
                  OFFSET -2.54057 -0.884171 1.56538
                  CHANNELS 3 Zrotation Xrotation Yrotation
                  End Site
                  {
                    OFFSET -1.62519 -0.234802 1.16502
                  }
                }
              }
              JOINT rMid1
              {
                OFFSET -8.24714 1.18213 3.41376
                CHANNELS 3 Zrotation Xrotation Yrotation
                JOINT rMid2
                {
                  OFFSET -3.10165 -0.590103 1.0647
                  CHANNELS 3 Zrotation Xrotation Yrotation
                  End Site
                  {
                    OFFSET -2.48547 -0.328903 0.83742
                  }
                }
              }
              JOINT rRing1
              {
                OFFSET -8.82822 0.546677 1.51678
                CHANNELS 3 Zrotation Xrotation Yrotation
                JOINT rRing2
                {
                  OFFSET -2.60934 -0.819778 -0.0198488
                  CHANNELS 3 Zrotation Xrotation Yrotation
                  End Site
                  {
                    OFFSET -2.33842 -0.294052 0.168128
                  }
                }
              }
              JOINT rPinky1
              {
                OFFSET -8.27202 -0.0477905 -0.4584
                CHANNELS 3 Zrotation Xrotation Yrotation
                JOINT rPinky2
                {
                  OFFSET -1.82734 -0.647385 -0.700984
                  CHANNELS 3 Zrotation Xrotation Yrotation
                  End Site
                  {
                    OFFSET -1.69225 -0.51767 -0.607171
                  }
                }
              }
            }
          }
        }
      }
      JOINT lCollar
      {
        OFFSET 2.68224 19.2634 -4.8768
        CHANNELS 3 Zrotation Xrotation Yrotation
        JOINT lShldr
        {
          OFFSET 8.77824 -1.95073 1.46304
          CHANNELS 3 Zrotation Xrotation Yrotation
          JOINT lForeArm
          {
            OFFSET 28.1742 -1.7115 0.48768
            CHANNELS 3 Zrotation Xrotation Yrotation
            JOINT lHand
            {
              OFFSET 22.5879 0.773209 7.07136
              CHANNELS 3 Zrotation Xrotation Yrotation
              JOINT lThumb1
              {
                OFFSET 1.2192 -0.487915 3.41376
                CHANNELS 3 Zrotation Xrotation Yrotation
                JOINT lThumb2
                {
                  OFFSET 3.37035 -0.52449 3.41376
                  CHANNELS 3 Zrotation Xrotation Yrotation
                  End Site
                  {
                    OFFSET 1.78271 -1.18214 1.43049
                  }
                }
              }
              JOINT lIndex1
              {
                OFFSET 7.75947 0.938293 5.60832
                CHANNELS 3 Zrotation Xrotation Yrotation
                JOINT lIndex2
                {
                  OFFSET 2.54057 -0.884171 1.56538
                  CHANNELS 3 Zrotation Xrotation Yrotation
                  End Site
                  {
                    OFFSET 1.62519 -0.234802 1.16502
                  }
                }
              }
              JOINT lMid1
              {
                OFFSET 8.24714 1.18213 3.41376
                CHANNELS 3 Zrotation Xrotation Yrotation
                JOINT lMid2
                {
                  OFFSET 3.10165 -0.590103 1.0647
                  CHANNELS 3 Zrotation Xrotation Yrotation
                  End Site
                  {
                    OFFSET 2.48547 -0.328903 0.83742
                  }
                }
              }
              JOINT lRing1
              {
                OFFSET 8.82822 0.546677 1.51678
                CHANNELS 3 Zrotation Xrotation Yrotation
                JOINT lRing2
                {
                  OFFSET 2.60934 -0.819778 -0.0198488
                  CHANNELS 3 Zrotation Xrotation Yrotation
                  End Site
                  {
                    OFFSET 2.33842 -0.294052 0.168128
                  }
                }
              }
              JOINT lPinky1
              {
                OFFSET 8.27202 -0.0477905 -0.4584
                CHANNELS 3 Zrotation Xrotation Yrotation
                JOINT lPinky2
                {
                  OFFSET 1.82734 -0.647385 -0.700984
                  CHANNELS 3 Zrotation Xrotation Yrotation
                  End Site
                  {
                    OFFSET 1.69225 -0.51767 -0.607171
                  }
                }
              }
            }
          }
        }
      }
    }
  }
  JOINT rButtock
  {
    OFFSET -8.77824 4.35084 1.2192
    CHANNELS 3 Zrotation Xrotation Yrotation
    JOINT rThigh
    {
      OFFSET 0 -1.70687 -2.19456
      CHANNELS 3 Zrotation Xrotation Yrotation
      JOINT rShin
      {
        OFFSET 0 -36.8199 0.73152
        CHANNELS 3 Zrotation Xrotation Yrotation
        JOINT rFoot
        {
          OFFSET 0.73152 -45.1104 -5.12064
          CHANNELS 3 Zrotation Xrotation Yrotation
          End Site
          {
            OFFSET -1.1221 -3.69964 12.103
          }
        }
      }
    }
  }
  JOINT lButtock
  {
    OFFSET 8.77824 4.35084 1.2192
    CHANNELS 3 Zrotation Xrotation Yrotation
    JOINT lThigh
    {
      OFFSET 0 -1.70687 -2.19456
      CHANNELS 3 Zrotation Xrotation Yrotation
      JOINT lShin
      {
        OFFSET 0 -36.8199 0.73152
        CHANNELS 3 Zrotation Xrotation Yrotation
        JOINT lFoot
        {
          OFFSET -0.73152 -45.1104 -5.12064
          CHANNELS 3 Zrotation Xrotation Yrotation
          End Site
          {
            OFFSET 1.1221 -3.69964 12.103
          }
        }
      }
    }
  }
}
MOTION
Frames:	4
Frame Time:	0.03333
0.0005037798121413311 62.27477568215735 0.12343085645138628 -3.1367976665496826 -1.987898588180542 7.692051887512207 -2.4132792949676514 14.395464897155762 3.841318368911743 2.8179616928100586 -9.616540908813477 1.2956733703613281 -5.055210590362549 14.532949447631836 -3.747753143310547 9.1012544631958 -22.314510345458984 -5.462525844573975 -0.02486417628824711 -0.03710484132170677 0.030395664274692535 0.005852268543094397 0.022927334532141685 0.04756668210029602 0.08309660106897354 0.001859377371147275 -0.0501607321202755 46.39017868041992 40.008827209472656 17.932180404663086 -25.587799072265625 -26.178787231445312 68.13297271728516 -1.6318728923797607 -10.058244705200195 -1.5912576913833618 -0.030649542808532715 -0.021105630323290825 -0.013668784871697426 0.02075122483074665 -0.042277656495571136 0.07275208830833435 -0.018975581973791122 -0.011502503417432308 -0.04631491005420685 7.787369251251221 5.418490886688232 0.44577401876449585 -0.060324955731630325 0.13967981934547424 -0.016315924003720284 2.9026458263397217 0.9890590906143188 0.09300943464040756 -0.010226116515696049 0.05055014416575432 -0.0499432235956192 10.265765190124512 0.7257709503173828 0.021013818681240082 0.027647320181131363 0.02923574484884739 -0.019411658868193626 2.1967995166778564 -0.7008083462715149 -0.19942007958889008 0.03639233857393265 0.0012098317965865135 0.042018625885248184 -54.82904815673828 40.66389083862305 -25.883708953857422 25.021326065063477 -23.679731369018555 -65.14038848876953 1.9645967483520508 -14.51061725616455 2.076458215713501 0.0035065659321844578 0.02888508327305317 -0.03047742322087288 -0.05432606488466263 -0.008632184006273746 0.010780679993331432 0.030702700838446617 -0.017212655395269394 0.053232960402965546 -7.742861270904541 5.505013465881348 -0.3590392470359802 -0.009047845378518105 0.010416335426270962 -0.015894148498773575 -2.93985652923584 0.9833682775497437 -0.13351820409297943 0.006382049527019262 -0.015499460510909557 -0.023744793608784676 -10.284133911132812 0.7166240811347961 -0.0754208192229271 -0.013058756478130817 -0.023149175569415092 -0.00999350007623434 -2.212193727493286 -0.7377334237098694 0.22156491875648499 -0.025346878916025162 -0.028107259422540665 -0.014493267051875591 -24.680130004882812 -42.14195251464844 -18.68756675720215 -1.4101179838180542 65.22319030761719 2.7149760723114014 -4.608489036560059 -12.128700256347656 -9.812482833862305 -0.0005322962533682585 0.0006773550412617624 -0.005608946084976196 29.919506072998047 -43.311588287353516 20.93447494506836 1.4906880855560303 66.01849365234375 -2.692918300628662 4.852105617523193 -12.141020774841309 13.132233619689941
-0.011970706933240706 62.577134496335475 0.2616904271168405 -3.4830315113067627 -0.25463345646858215 8.83218765258789 -2.215859889984131 14.50467300415039 3.5336122512817383 2.6296706199645996 -9.740804672241211 1.0654737949371338 -4.965646266937256 14.4706449508667 -3.742415428161621 8.982861518859863 -22.22466278076172 -5.556613922119141 0.022568244487047195 -0.0794001892209053 -0.003932593390345573 -0.006315435748547316 0.030964618548750877 0.07205430418252945 -0.12102220952510834 0.040708135813474655 -0.08102910965681076 46.633514404296875 39.819984436035156 18.47060203552246 -25.460975646972656 -26.253435134887695 68.29438781738281 -1.670255184173584 -10.88774299621582 -1.6139106750488281 -0.034652043133974075 -0.042318206280469894 0.06001866236329079 0.033552467823028564 -0.04218028858304024 0.08923130482435226 -0.024640940129756927 0.010987726971507072 -0.11189617216587067 7.6979570388793945 5.424124240875244 0.4779409170150757 0.03595755249261856 -0.00034223473630845547 0.042321477085351944 2.78700590133667 0.9439101219177246 0.10242916643619537 0.0332762785255909 0.053954459726810455 -0.029954230412840843 10.222387313842773 0.6430444717407227 0.04746798798441887 0.1358822137117386 0.06160765141248703 -0.03062204271554947 2.190483570098877 -0.6181825995445251 -0.2411603182554245 0.018643658608198166 0.018018551170825958 -0.004560938570648432 -54.90088653564453 40.43840026855469 -25.892303466796875 24.929431915283203 -23.72241973876953 -65.81584930419922 1.953883171081543 -14.64893913269043 2.122764825820923 0.003647757926955819 -0.09118913114070892 0.03275764733552933 0.13543789088726044 0.10998910665512085 -0.07278688997030258 -0.050508469343185425 0.0698019415140152 -0.0180519912391901 -7.722073078155518 5.554959297180176 -0.35454094409942627 -0.017706112936139107 -0.032549962401390076 -0.0044867475517094135 -2.9365999698638916 0.95143061876297 -0.13008630275726318 0.051948513835668564 -0.07381027191877365 0.09506964683532715 -10.192373275756836 0.8013789653778076 -0.10784263163805008 -0.010663049295544624 -0.03615456074476242 0.03443557396531105 -2.200835943222046 -0.7202784419059753 0.3075847327709198 -0.0025825356133282185 -0.029334096238017082 -0.034930408000946045 -24.702178955078125 -41.35167694091797 -18.764989852905273 -1.501344084739685 64.6535873413086 2.439744710922241 -4.506925106048584 -11.538074493408203 -9.605276107788086 -0.03501344472169876 0.00411689979955554 0.007588455453515053 29.8332576751709 -42.37331771850586 20.48874282836914 1.7570457458496094 66.15048217773438 -2.8013603687286377 5.053610801696777 -11.54133129119873 12.878499984741211
-0.06703024921488865 67.8526838187941 0.07497685414908115 -138.14231872558594 -81.38471984863281 -145.4473419189453 -0.5106551647186279 16.415441513061523 10.700045585632324 -1.922408103942871 -10.55506420135498 2.2947773933410645 0.04456367716193199 12.393878936767578 10.706291198730469 2.017780065536499 -22.972915649414062 20.840417861938477 -0.32074815034866333 -0.09108161181211472 0.1372268944978714 0.050703015178442 0.19891946017742157 0.28221583366394043 0.05519408732652664 -0.37016892433166504 -0.11186143010854721 66.0296401977539 76.18509674072266 -1.2879528999328613 -27.939197540283203 -51.05705642700195 97.88121032714844 -12.330503463745117 -66.72808074951172 -19.407581329345703 -0.5199503302574158 -0.49794498085975647 0.06496334820985794 -0.2600885331630707 0.02149221859872341 0.16933882236480713 -0.002156499307602644 -0.07017207890748978 -0.02099813148379326 8.194023132324219 5.739132881164551 0.350976824760437 0.07567065954208374 -0.013812617398798466 -0.150150865316391 2.7605981826782227 0.8492099642753601 0.11233779042959213 0.29296547174453735 0.4506714940071106 0.12005660682916641 10.514579772949219 0.9657169580459595 0.21883739531040192 -0.4450344741344452 -0.2839789092540741 -0.5006322264671326 2.30776047706604 -0.22463728487491608 -0.18336856365203857 -0.1727333515882492 0.12531322240829468 0.5587185025215149 -54.967918395996094 8.542710304260254 -38.38239669799805 26.37310791015625 -29.055856704711914 -72.20761108398438 0.8110765814781189 9.880114555358887 -1.6585499048233032 -0.3476431965827942 0.11668973416090012 -0.03903096914291382 -0.20669804513454437 -0.006463820580393076 -0.11256103217601776 0.04403509199619293 -0.10809343308210373 -0.19040213525295258 -7.674116611480713 5.312321186065674 -0.37468233704566956 0.08246517181396484 -0.19623994827270508 0.08817298710346222 -2.743901491165161 0.6633455753326416 -0.005160430911928415 -0.10742911696434021 -0.47685229778289795 0.18543560802936554 -10.712541580200195 0.7909055948257446 0.34406769275665283 0.10847797244787216 -0.0395653136074543 -0.15734176337718964 -2.2145345211029053 -0.7171869874000549 0.30888545513153076 0.10098804533481598 0.09183124452829361 0.23651163280010223 -17.085710525512695 -33.83354568481445 -17.92032814025879 -3.7523293495178223 77.70914459228516 5.409228801727295 -10.495589256286621 -21.663671493530273 -21.22329330444336 0.013943755067884922 0.10335278511047363 0.1943497657775879 58.66002655029297 -52.3789176940918 49.427547454833984 0.6353989243507385 66.52064514160156 -0.37764331698417664 -0.1991860717535019 3.1142895221710205 1.3948646783828735
-0.2349703001969275 67.35777514172416 -0.2178155330445 -174.3014678955078 -64.03230285644531 162.25233459472656 -3.6017141342163086 14.24452018737793 14.275174140930176 -2.9489877223968506 -11.067255973815918 4.044611930847168 -1.007757544517517 12.913322448730469 11.313558578491211 2.483646869659424 -22.355539321899414 20.514989852905273 -0.5577895641326904 -0.09964477270841599 0.3474462032318115 -0.1254315972328186 -0.2877725660800934 -0.054172661155462265 0.05772649496793747 -0.1823001652956009 -0.4583671987056732 52.64141082763672 80.05937957763672 14.108634948730469 -25.951234817504883 -48.868717193603516 99.16612243652344 -33.90655517578125 -78.37828826904297 -41.805030822753906 -0.35183292627334595 -0.4363099932670593 -0.33040785789489746 -0.36593982577323914 0.25581440329551697 0.684085488319397 0.18259599804878235 0.2693002223968506 -0.017914265394210815 6.950088977813721 4.72539758682251 0.8815604448318481 0.21347858011722565 0.002744170604273677 0.032420430332422256 3.355914354324341 0.8252440690994263 -0.03630177304148674 0.2126525640487671 0.10114705562591553 0.6229429244995117 10.325108528137207 0.766539990901947 0.3734070360660553 0.04248786345124245 -0.048679549247026443 -0.18030019104480743 2.678142547607422 -0.4203876554965973 -0.09052348881959915 0.1142655536532402 0.4262772500514984 0.3073592483997345 -63.36009216308594 3.7138993740081787 -29.493335723876953 28.450210571289062 -35.90979766845703 -78.65415954589844 1.041204810142517 12.58558464050293 -2.3236074447631836 -0.16475015878677368 0.01994299702346325 -0.3430013954639435 -0.398181676864624 0.4069732427597046 0.055349718779325485 -0.04116509482264519 0.23992599546909332 -0.30682429671287537 -7.667303085327148 5.36461877822876 -0.34978505969047546 -0.28040459752082825 -0.6499068737030029 -0.4071787893772125 -3.0463201999664307 0.7678049802780151 -0.061454545706510544 -0.027069250121712685 -0.42797690629959106 -0.09979239851236343 -10.588626861572266 0.7034897804260254 0.022797618061304092 0.08342742174863815 -0.0429098941385746 -0.20212700963020325 -1.9838184118270874 -0.8773615956306458 -0.03970405459403992 -0.009759912267327309 0.13928386569023132 0.08148620277643204 -14.827516555786133 -38.455570220947266 -24.282846450805664 -8.733180046081543 85.22581481933594 9.944519996643066 -13.592840194702148 -22.520299911499023 -22.195877075195312 0.10765691846609116 0.13199195265769958 -0.13353604078292847 48.86872482299805 -45.20157241821289 40.599910736083984 -0.11670104414224625 57.48190689086914 0.07165507972240448 -0.21776410937309265 6.403977870941162 0.8022440671920776
